<svg xmlns="http://www.w3.org/2000/svg" viewBox="0 0 64 64" role="img" aria-label="Redtail hawk logo">
  <defs>
    <linearGradient id="hawk" x1="0" y1="0" x2="1" y2="1">
      <stop offset="0%" stop-color="#f2f2f2"/>
      <stop offset="100%" stop-color="#b8b8b8"/>
    </linearGradient>
  </defs>

  <path d="M9 40c8-2 13-7 18-15 6-9 16-15 29-16-8 3-13 7-16 12 5 0 10 2 15 6-8 0-14 1-19 4 4 1 7 3 10 7-8-2-15-2-21 1-3 2-6 5-9 9 1-3 1-6 0-8-2 1-4 1-7 0z" fill="url(#hawk)"/>
  <path d="M18 46c7-2 11-2 18 2-5 0-9 1-12 4-2-2-4-4-6-6z" fill="#ff3a4f"/>
  <circle cx="43" cy="21" r="1.9" fill="#ff3a4f"/>
</svg>
