<svg xmlns="http://www.w3.org/2000/svg" viewBox="0 0 1200 660" fill="none">
  <defs><linearGradient id="bg" x2="1" y2="1"><stop stop-color="#17191e"/><stop offset=".5" stop-color="#121619"/><stop offset="1" stop-color="#261718"/></linearGradient></defs>
  <path fill="url(#bg)" d="M0 0h1200v660H0z"/><g font-family="Arial,sans-serif"><text x="86" y="108" fill="#f5eee7" font-size="29" font-weight="700">A swap is a decision, not just an addition.</text><text x="86" y="143" fill="#b5b2ae" font-size="16">Name the matchup. Name what comes out.</text></g>
  <rect x="85" y="202" width="430" height="344" rx="20" fill="#1c2022" stroke="#53636a" stroke-width="2"/><rect x="685" y="202" width="430" height="344" rx="20" fill="#21191b" stroke="#91645f" stroke-width="2"/>
  <text x="124" y="254" fill="#c2ced0" font-family="Arial,sans-serif" font-size="19" font-weight="700">MAIN DECK</text><text x="724" y="254" fill="#e2aa9a" font-family="Arial,sans-serif" font-size="19" font-weight="700">SIDEBOARD</text>
  <g fill="#2c3539" stroke="#82959a" stroke-width="2"><rect x="131" y="299" width="94" height="146" rx="10"/><rect x="250" y="299" width="94" height="146" rx="10"/><rect x="369" y="299" width="94" height="146" rx="10"/></g>
  <g fill="#3b2828" stroke="#cd8d7d" stroke-width="2"><rect x="731" y="299" width="94" height="146" rx="10"/><rect x="850" y="299" width="94" height="146" rx="10"/><rect x="969" y="299" width="94" height="146" rx="10"/></g>
  <path d="M550 351h100m-25-22 25 22-25 22" stroke="#ff8171" stroke-width="5" stroke-linecap="round" stroke-linejoin="round"/>
  <path d="M650 415H550m25 22-25-22 25-22" stroke="#9cb8ac" stroke-width="5" stroke-linecap="round" stroke-linejoin="round"/>
  <g fill="#c2c1bc" font-family="Arial,sans-serif" font-size="15"><text x="133" y="492">keep your core plan</text><text x="731" y="492">answer a real problem</text></g>
</svg>
