<svg xmlns="http://www.w3.org/2000/svg" viewBox="0 0 1200 660" fill="none">
  <defs><linearGradient id="bg" x2="1" y2="1"><stop stop-color="#1c1719"/><stop offset=".5" stop-color="#13171a"/><stop offset="1" stop-color="#101314"/></linearGradient></defs>
  <path fill="url(#bg)" d="M0 0h1200v660H0z"/>
  <g font-family="Arial,sans-serif"><text x="92" y="104" fill="#f5eee7" font-size="29" font-weight="700">Three hands. Three different stories.</text><text x="92" y="139" fill="#b5b2ae" font-size="16">The right mix lets your first few turns connect.</text></g>
  <g transform="translate(91 205)"><rect width="310" height="330" rx="18" fill="#17211f" stroke="#79ba9f" stroke-width="2"/><text x="25" y="43" fill="#9edbbd" font-family="Arial,sans-serif" font-size="17" font-weight="700">A PLAN TAKES SHAPE</text><g fill="#293a34" stroke="#7db59c" stroke-width="2"><rect x="25" y="85" width="62" height="145" rx="9"/><rect x="104" y="69" width="62" height="161" rx="9"/><rect x="183" y="54" width="62" height="176" rx="9"/></g><path d="M56 264h202" stroke="#83c8a4" stroke-width="3" stroke-linecap="round"/><circle cx="70" cy="264" r="7" fill="#83c8a4"/><circle cx="158" cy="264" r="7" fill="#83c8a4"/><circle cx="247" cy="264" r="7" fill="#83c8a4"/><text x="25" y="303" fill="#d4d4cf" font-family="Arial,sans-serif" font-size="15">mana → setup → pressure</text></g>
  <g transform="translate(445 205)"><rect width="310" height="330" rx="18" fill="#241b1b" stroke="#b56a61" stroke-width="2"/><text x="25" y="43" fill="#e49a88" font-family="Arial,sans-serif" font-size="17" font-weight="700">ALL POWER, NO START</text><g fill="#3c2928" stroke="#bb756a" stroke-width="2"><rect x="27" y="86" width="68" height="145" rx="9"/><rect x="116" y="86" width="68" height="145" rx="9"/><rect x="205" y="86" width="68" height="145" rx="9"/></g><path d="M42 268h223" stroke="#c0736a" stroke-width="3" stroke-linecap="round" stroke-dasharray="7 10"/><path d="m144 253 22 30m0-30-22 30" stroke="#d58175" stroke-width="4" stroke-linecap="round"/><text x="25" y="303" fill="#d4d4cf" font-family="Arial,sans-serif" font-size="15">big spells, missing early plays</text></g>
  <g transform="translate(799 205)"><rect width="310" height="330" rx="18" fill="#1c2024" stroke="#8b9ba6" stroke-width="2"/><text x="25" y="43" fill="#c1cbd1" font-family="Arial,sans-serif" font-size="17" font-weight="700">ONE JOB, TOO OFTEN</text><g fill="#2c3338" stroke="#9caab2" stroke-width="2"><rect x="26" y="86" width="68" height="145" rx="9"/><rect x="116" y="86" width="68" height="145" rx="9"/><rect x="206" y="86" width="68" height="145" rx="9"/></g><path d="M60 264h188" stroke="#a7b8c0" stroke-width="3" stroke-linecap="round"/><circle cx="60" cy="264" r="7" fill="#a7b8c0"/><circle cx="248" cy="264" r="7" fill="#a7b8c0"/><text x="25" y="303" fill="#d4d4cf" font-family="Arial,sans-serif" font-size="15">redundancy can be a feature</text></g>
</svg>
